<?xml version="1.0" encoding="UTF-8" standalone="no"?>
<!DOCTYPE svg PUBLIC "-//W3C//DTD SVG 1.1//EN" "http://www.w3.org/Graphics/SVG/1.1/DTD/svg11.dtd">
<svg width="100%" height="100%" viewBox="0 0 16 16" version="1.1" xmlns="http://www.w3.org/2000/svg" xmlns:xlink="http://www.w3.org/1999/xlink" xml:space="preserve" xmlns:serif="http://www.serif.com/" style="fill-rule:evenodd;clip-rule:evenodd;stroke-linejoin:round;stroke-miterlimit:2;">
    <path id="Icon" d="M8,16C12.418,16 16,12.418 16,8C16,3.582 12.418,0 8,0C3.582,0 0,3.582 0,8C0,12.418 3.582,16 8,16ZM9,5C9,4.448 8.552,4 8,4C7.448,4 7,4.448 7,5L7,7L5,7C4.448,7 4,7.448 4,8C4,8.552 4.448,9 5,9L7,9L7,11C7,11.552 7.448,12 8,12C8.552,12 9,11.552 9,11L9,9L11,9C11.552,9 12,8.552 12,8C12,7.448 11.552,7 11,7L9,7L9,5Z" style="fill:rgb(255,226,9);"/>
</svg>
