<?xml version="1.0" encoding="UTF-8" standalone="no"?>
<!DOCTYPE svg PUBLIC "-//W3C//DTD SVG 1.1//EN" "http://www.w3.org/Graphics/SVG/1.1/DTD/svg11.dtd">
<svg width="100%" height="100%" viewBox="0 0 16 16" version="1.1" xmlns="http://www.w3.org/2000/svg" xmlns:xlink="http://www.w3.org/1999/xlink" xml:space="preserve" xmlns:serif="http://www.serif.com/" style="fill-rule:evenodd;clip-rule:evenodd;stroke-linejoin:round;stroke-miterlimit:2;">
    <path id="Icon" d="M7.987,15.979C12.405,15.979 15.987,12.398 15.987,7.979C15.987,3.561 12.405,-0.021 7.987,-0.021C3.569,-0.021 -0.013,3.561 -0.013,7.979C-0.013,12.398 3.569,15.979 7.987,15.979ZM9.749,4.687C9.91,4.337 10.26,4.095 10.665,4.095C11.222,4.095 11.674,4.554 11.674,5.12C11.674,5.286 11.635,5.443 11.566,5.582C11.562,5.592 11.557,5.601 11.553,5.611L8.819,11.262C8.789,11.323 8.749,11.376 8.702,11.418C8.516,11.641 8.239,11.783 7.929,11.783C7.755,11.783 7.591,11.738 7.448,11.659C7.391,11.636 7.337,11.603 7.29,11.558L4.973,9.379C4.957,9.364 4.943,9.349 4.929,9.332C4.742,9.146 4.625,8.887 4.625,8.6C4.625,8.035 5.078,7.575 5.635,7.575C5.914,7.575 6.167,7.691 6.35,7.877L7.624,9.074L9.727,4.728C9.734,4.714 9.741,4.7 9.749,4.687Z" style="fill:rgb(255,226,9);"/>
</svg>
