<?xml version="1.0" encoding="UTF-8" standalone="no"?>
<!DOCTYPE svg PUBLIC "-//W3C//DTD SVG 1.1//EN" "http://www.w3.org/Graphics/SVG/1.1/DTD/svg11.dtd">
<svg width="100%" height="100%" viewBox="0 0 70 62" version="1.1" xmlns="http://www.w3.org/2000/svg" xmlns:xlink="http://www.w3.org/1999/xlink" xml:space="preserve" xmlns:serif="http://www.serif.com/" style="fill-rule:evenodd;clip-rule:evenodd;stroke-linejoin:round;stroke-miterlimit:2;">
    <path id="Icon" d="M8.75,0C3.918,0 0,3.918 0,8.75L0,52.5C0,57.333 3.918,61.25 8.75,61.25L61.25,61.25C66.083,61.25 70,57.333 70,52.5L70,8.75C70,3.918 66.083,0 61.25,0L8.75,0ZM21.875,8.75L48.125,8.75L48.125,26.25L21.875,26.25L21.875,8.75ZM56.875,43.75L56.875,52.5L61.25,52.5L61.25,43.75L56.875,43.75ZM48.125,35L21.875,35L21.875,52.5L48.125,52.5L48.125,35ZM56.875,35L61.25,35L61.25,26.25L56.875,26.25L56.875,35ZM61.25,17.5L61.25,8.75L56.875,8.75L56.875,17.5L61.25,17.5ZM13.125,8.75L13.125,17.5L8.75,17.5L8.75,8.75L13.125,8.75ZM13.125,26.25L8.75,26.25L8.75,35L13.125,35L13.125,26.25ZM8.75,43.75L13.125,43.75L13.125,52.5L8.75,52.5L8.75,43.75Z" style="fill:rgb(46,46,47);"/>
</svg>
