<?xml version="1.0" encoding="UTF-8" standalone="no"?>
<!DOCTYPE svg PUBLIC "-//W3C//DTD SVG 1.1//EN" "http://www.w3.org/Graphics/SVG/1.1/DTD/svg11.dtd">
<svg width="100%" height="100%" viewBox="0 0 20 20" version="1.1" xmlns="http://www.w3.org/2000/svg" xmlns:xlink="http://www.w3.org/1999/xlink" xml:space="preserve" xmlns:serif="http://www.serif.com/" style="fill-rule:evenodd;clip-rule:evenodd;stroke-linejoin:round;stroke-miterlimit:2;">
    <g id="Search">
        <path id="Icon" d="M8,4C5.791,4 4,5.791 4,8C4,10.209 5.791,12 8,12C10.209,12 12,10.209 12,8C12,5.791 10.209,4 8,4ZM2,8C2,4.686 4.686,2 8,2C11.314,2 14,4.686 14,8C14,9.296 13.589,10.496 12.891,11.477L17.707,16.293C18.098,16.683 18.098,17.317 17.707,17.707C17.317,18.098 16.683,18.098 16.293,17.707L11.477,12.891C10.496,13.589 9.296,14 8,14C4.686,14 2,11.314 2,8Z" style="fill:rgb(156,163,175);"/>
    </g>
</svg>
